<?xml version="1.0" encoding="utf-8"?>
<!-- Generator: Adobe Illustrator 16.0.0, SVG Export Plug-In . SVG Version: 6.00 Build 0)  -->
<!DOCTYPE svg PUBLIC "-//W3C//DTD SVG 1.1//EN" "http://www.w3.org/Graphics/SVG/1.1/DTD/svg11.dtd">
<svg version="1.1" id="Layer_1" xmlns="http://www.w3.org/2000/svg" xmlns:xlink="http://www.w3.org/1999/xlink" x="0px" y="0px"
	 width="673px" height="127px" viewBox="0 0 673 127" enable-background="new 0 0 673 127" xml:space="preserve">
<g>
	<g>
		<text transform="matrix(1 0 0 1 68.9946 82.6992)" fill="#FFFFFF" font-family="'OpenSans-Light'" font-size="75.7706">4.50</text>
		<g>
			<path fill="#ECECEC" d="M28.556,38.82c-10.062,0-18.242,8.186-18.242,18.247c0,10.064,8.181,18.243,18.242,18.243
				s18.249-8.179,18.249-18.243C46.805,47.006,38.618,38.82,28.556,38.82L28.556,38.82z M28.556,71.43
				c-7.916,0-14.362-6.439-14.362-14.362c0-7.921,6.446-14.364,14.362-14.364c7.92,0,14.366,6.443,14.366,14.364
				C42.922,64.99,36.476,71.43,28.556,71.43L28.556,71.43z M28.556,71.43"/>
			<path fill="#ECECEC" d="M38.065,56.504h-8.197v-9.859c0-0.826-0.673-1.502-1.503-1.502c-0.829,0-1.501,0.676-1.501,1.502v11.361
				c0,0.83,0.672,1.502,1.501,1.502h9.7c0.832,0,1.503-0.672,1.503-1.502C39.568,57.177,38.897,56.504,38.065,56.504L38.065,56.504z
				 M38.065,56.504"/>
		</g>
	</g>
	<text transform="matrix(1 0 0 1 339.5703 115.1582)"><tspan x="0" y="0" fill="#FFFFFF" font-family="'HelveticaNeue-Thin'" font-size="42.6979">60</tspan><tspan x="43.807" y="0" fill="#FFFFFF" font-family="'HelveticaNeue-Thin'" font-size="17.0791">CO2</tspan><tspan x="74.241" y="0" fill="#FFFFFF" font-family="'HelveticaNeue-Thin'" font-size="27.3267">       </tspan><tspan x="114.792" y="0" fill="#FFFFFF" font-family="'HelveticaNeue-Thin'" font-size="42.6979">12</tspan><tspan x="158.599" y="0" fill="#FFFFFF" font-family="'HelveticaNeue-Thin'" font-size="17.0791">NO2   </tspan><tspan x="201.227" y="0" fill="#FFFFFF" font-family="'HelveticaNeue-Thin'" font-size="21.3489">      </tspan><tspan x="228.379" y="0" fill="#FFFFFF" font-family="'HelveticaNeue-Thin'" font-size="42.6979">02</tspan><tspan x="272.186" y="0" fill="#FFFFFF" font-family="'HelveticaNeue-Thin'" font-size="17.0791">O3</tspan><tspan x="292.716" y="0" fill="#FFFFFF" font-family="'HelveticaNeue-Thin'" font-size="21.3489" letter-spacing="14">	</tspan></text>
	<g>
		<g>
			<path fill="#FFFFFF" d="M648.215,103.059c0.205,0,0.369,0.164,0.369,0.369v4.123c0,0.204-0.164,0.369-0.369,0.369h-2.906
				l5.609,5.648l5.609-5.648h-3.162c-0.205,0-0.369-0.165-0.369-0.369v-4.123c0-0.205,0.164-0.369,0.369-0.369
				c0.201,0,0.367,0.164,0.367,0.369v3.756h3.676c0.15,0,0.283,0.088,0.338,0.228c0.059,0.136,0.029,0.294-0.076,0.4l-6.492,6.539
				c-0.137,0.139-0.383,0.139-0.521,0l-6.49-6.539c-0.105-0.106-0.137-0.265-0.08-0.4c0.057-0.14,0.191-0.228,0.34-0.228h3.422
				v-3.756C647.848,103.223,648.012,103.059,648.215,103.059z"/>
		</g>
		<g>
			<path fill="#FFFFFF" d="M653.365,98.886c0.201,0,0.367,0.166,0.367,0.367v2.319c0,0.202-0.166,0.368-0.367,0.368
				c-0.205,0-0.369-0.166-0.369-0.368v-2.319C652.996,99.052,653.16,98.886,653.365,98.886z"/>
		</g>
		<g>
			<path fill="#FFFFFF" d="M648.215,98.982c0.205,0,0.369,0.164,0.369,0.367v2.318c0,0.203-0.164,0.369-0.369,0.369
				c-0.203,0-0.367-0.166-0.367-0.369V99.35C647.848,99.146,648.012,98.982,648.215,98.982z"/>
		</g>
		<g>
			<path fill="#FFFFFF" d="M653.365,95.64c0.201,0,0.367,0.164,0.367,0.368v1.391c0,0.203-0.166,0.369-0.367,0.369
				c-0.205,0-0.369-0.166-0.369-0.369v-1.391C652.996,95.804,653.16,95.64,653.365,95.64z"/>
		</g>
		<g>
			<path fill="#FFFFFF" d="M648.215,95.736c0.205,0,0.369,0.164,0.369,0.368v1.39c0,0.205-0.164,0.368-0.369,0.368
				c-0.203,0-0.367-0.163-0.367-0.368v-1.39C647.848,95.9,648.012,95.736,648.215,95.736z"/>
		</g>
		<g>
			<path fill="#FFFFFF" d="M653.365,93.322c0.201,0,0.367,0.165,0.367,0.368v0.464c0,0.203-0.166,0.365-0.367,0.365
				c-0.205,0-0.369-0.162-0.369-0.365V93.69C652.996,93.487,653.16,93.322,653.365,93.322z"/>
		</g>
		<g>
			<path fill="#FFFFFF" d="M648.215,93.418c0.205,0,0.369,0.164,0.369,0.367v0.465c0,0.201-0.164,0.366-0.369,0.366
				c-0.203,0-0.367-0.165-0.367-0.366v-0.465C647.848,93.582,648.012,93.418,648.215,93.418z"/>
		</g>
	</g>
	<g>
		<g>
			<path fill="#FFFFFF" d="M545.43,103.81c0.205,0,0.367,0.162,0.367,0.366v4.124c0,0.204-0.162,0.369-0.367,0.369h-2.906
				l5.609,5.649l5.607-5.649h-3.164c-0.199,0-0.365-0.165-0.365-0.369v-4.124c0-0.204,0.166-0.366,0.365-0.366
				c0.205,0,0.369,0.162,0.369,0.366v3.758h3.678c0.148,0,0.281,0.089,0.34,0.227c0.057,0.136,0.025,0.295-0.078,0.4l-6.49,6.539
				c-0.141,0.139-0.385,0.139-0.523,0l-6.49-6.539c-0.107-0.105-0.137-0.265-0.08-0.4c0.057-0.138,0.191-0.227,0.34-0.227h3.422
				v-3.758C545.063,103.972,545.227,103.81,545.43,103.81z"/>
		</g>
		<g>
			<path fill="#FFFFFF" d="M550.576,99.635c0.205,0,0.369,0.165,0.369,0.367v2.32c0,0.201-0.164,0.366-0.369,0.366
				c-0.199,0-0.365-0.165-0.365-0.366v-2.32C550.211,99.8,550.377,99.635,550.576,99.635z"/>
		</g>
		<g>
			<path fill="#FFFFFF" d="M545.43,99.73c0.205,0,0.367,0.164,0.367,0.37v2.317c0,0.203-0.162,0.368-0.367,0.368
				c-0.203,0-0.367-0.165-0.367-0.368v-2.317C545.063,99.895,545.227,99.73,545.43,99.73z"/>
		</g>
		<g>
			<path fill="#FFFFFF" d="M550.576,96.389c0.205,0,0.369,0.166,0.369,0.369v1.391c0,0.203-0.164,0.365-0.369,0.365
				c-0.199,0-0.365-0.162-0.365-0.365v-1.391C550.211,96.555,550.377,96.389,550.576,96.389z"/>
		</g>
		<g>
			<path fill="#FFFFFF" d="M545.43,96.485c0.205,0,0.367,0.166,0.367,0.367v1.392c0,0.203-0.162,0.368-0.367,0.368
				c-0.203,0-0.367-0.165-0.367-0.368v-1.392C545.063,96.651,545.227,96.485,545.43,96.485z"/>
		</g>
		<g>
			<path fill="#FFFFFF" d="M550.576,94.071c0.205,0,0.369,0.163,0.369,0.368v0.463c0,0.204-0.164,0.368-0.369,0.368
				c-0.199,0-0.365-0.164-0.365-0.368v-0.463C550.211,94.234,550.377,94.071,550.576,94.071z"/>
		</g>
		<g>
			<path fill="#FFFFFF" d="M545.43,94.166c0.205,0,0.367,0.166,0.367,0.368v0.464c0,0.203-0.162,0.368-0.367,0.368
				c-0.203,0-0.367-0.165-0.367-0.368v-0.464C545.063,94.332,545.227,94.166,545.43,94.166z"/>
		</g>
	</g>
	<g>
		<g>
			<path fill="#FFFFFF" d="M428.064,103.887c0.203,0,0.369,0.166,0.369,0.369v4.125c0,0.203-0.166,0.368-0.369,0.368h-2.906
				l5.607,5.649l5.611-5.649h-3.164c-0.203,0-0.369-0.165-0.369-0.368v-4.125c0-0.203,0.166-0.369,0.369-0.369
				s0.367,0.166,0.367,0.369v3.756h3.678c0.148,0,0.281,0.09,0.34,0.227c0.057,0.139,0.027,0.297-0.08,0.403l-6.49,6.537
				c-0.139,0.141-0.381,0.141-0.521,0l-6.492-6.537c-0.104-0.106-0.137-0.265-0.078-0.403c0.059-0.137,0.191-0.227,0.34-0.227h3.42
				v-3.756C427.695,104.053,427.861,103.887,428.064,103.887z"/>
		</g>
		<g>
			<path fill="#FFFFFF" d="M433.213,99.714c0.203,0,0.367,0.166,0.367,0.368v2.32c0,0.2-0.164,0.366-0.367,0.366
				s-0.369-0.166-0.369-0.366v-2.32C432.844,99.88,433.01,99.714,433.213,99.714z"/>
		</g>
		<g>
			<path fill="#FFFFFF" d="M428.064,99.811c0.203,0,0.369,0.164,0.369,0.369v2.318c0,0.202-0.166,0.367-0.369,0.367
				s-0.369-0.165-0.369-0.367v-2.318C427.695,99.975,427.861,99.811,428.064,99.811z"/>
		</g>
		<g>
			<path fill="#FFFFFF" d="M433.213,96.47c0.203,0,0.367,0.166,0.367,0.366v1.393c0,0.203-0.164,0.369-0.367,0.369
				s-0.369-0.166-0.369-0.369v-1.393C432.844,96.636,433.01,96.47,433.213,96.47z"/>
		</g>
		<g>
			<path fill="#FFFFFF" d="M428.064,96.565c0.203,0,0.369,0.163,0.369,0.366v1.393c0,0.203-0.166,0.366-0.369,0.366
				s-0.369-0.163-0.369-0.366v-1.393C427.695,96.729,427.861,96.565,428.064,96.565z"/>
		</g>
		<g>
			<path fill="#FFFFFF" d="M433.213,94.15c0.203,0,0.367,0.165,0.367,0.368v0.464c0,0.203-0.164,0.367-0.367,0.367
				s-0.369-0.164-0.369-0.367v-0.464C432.844,94.315,433.01,94.15,433.213,94.15z"/>
		</g>
		<g>
			<path fill="#FFFFFF" d="M428.064,94.247c0.203,0,0.369,0.163,0.369,0.368v0.463c0,0.205-0.166,0.368-0.369,0.368
				s-0.369-0.163-0.369-0.368v-0.463C427.695,94.41,427.861,94.247,428.064,94.247z"/>
		</g>
	</g>
	<g>
		<g>
			<text transform="matrix(1 0 0 1 387.1934 60.7598)" fill="#FFFFFF" font-family="'OpenSans-Light'" font-size="70.8783">23°</text>
		</g>
		<g>
			<g>
				<g>
					<path fill="#FFFFFF" d="M357.803,19.626c0,0.772-0.6,1.402-1.313,1.402c-0.715,0-1.314-0.63-1.314-1.402v-3.411
						c0-0.775,0.6-1.402,1.314-1.402c0.713,0,1.313,0.627,1.313,1.402V19.626z"/>
				</g>
				<g>
					<path fill="#FFFFFF" d="M349.533,20.378c0.389,0.661,0.191,1.502-0.436,1.866c-0.615,0.359-1.439,0.106-1.824-0.559
						l-1.709-2.958c-0.389-0.665-0.188-1.507,0.43-1.862c0.623-0.367,1.449-0.114,1.838,0.554L349.533,20.378z"/>
				</g>
				<g>
					<path fill="#FFFFFF" d="M343.756,24.904c0.668,0.386,0.914,1.208,0.557,1.827c-0.357,0.623-1.201,0.826-1.863,0.437
						l-2.961-1.709c-0.666-0.385-0.914-1.212-0.553-1.832c0.357-0.622,1.195-0.813,1.865-0.434L343.756,24.904z"/>
				</g>
				<g>
					<path fill="#FFFFFF" d="M340.547,31.976c0.77,0,1.395,0.588,1.395,1.305c0,0.716-0.625,1.311-1.395,1.311h-3.416
						c-0.766,0-1.395-0.595-1.395-1.311c0-0.717,0.629-1.305,1.395-1.305H340.547z"/>
				</g>
				<g>
					<path fill="#FFFFFF" d="M341.307,39.699c0.662-0.384,1.5-0.186,1.863,0.44c0.357,0.622,0.105,1.443-0.557,1.824l-2.963,1.712
						c-0.662,0.388-1.506,0.188-1.861-0.437c-0.359-0.62-0.107-1.445,0.555-1.826L341.307,39.699z"/>
				</g>
				<g>
					<path fill="#FFFFFF" d="M345.82,46.016c0.389-0.664,1.217-0.916,1.83-0.554c0.625,0.362,0.826,1.19,0.438,1.862l-1.709,2.959
						c-0.385,0.665-1.209,0.914-1.834,0.554c-0.621-0.36-0.814-1.198-0.426-1.858L345.82,46.016z"/>
				</g>
				<g>
					<path fill="#FFFFFF" d="M352.893,49.224c0-0.765,0.59-1.395,1.313-1.395c0.715,0,1.303,0.63,1.303,1.395v3.419
						c0,0.771-0.588,1.396-1.303,1.396c-0.723,0-1.313-0.624-1.313-1.396V49.224z"/>
				</g>
				<g>
					<path fill="#FFFFFF" d="M360.621,48.471c-0.385-0.666-0.191-1.507,0.432-1.866c0.625-0.356,1.449-0.111,1.84,0.557l1.699,2.963
						c0.385,0.658,0.197,1.502-0.432,1.855c-0.627,0.362-1.443,0.114-1.828-0.548L360.621,48.471z"/>
				</g>
				<g>
					<path fill="#FFFFFF" d="M366.939,43.953c-0.672-0.389-0.924-1.211-0.561-1.834c0.359-0.627,1.193-0.816,1.865-0.436
						l2.961,1.709c0.66,0.384,0.908,1.208,0.553,1.831c-0.357,0.622-1.195,0.819-1.865,0.433L366.939,43.953z"/>
				</g>
				<g>
					<path fill="#FFFFFF" d="M370.145,36.883c-0.766,0-1.395-0.593-1.395-1.313c0-0.723,0.629-1.307,1.395-1.307h3.418
						c0.766,0,1.396,0.584,1.396,1.307c0,0.72-0.631,1.313-1.396,1.313H370.145z"/>
				</g>
				<g>
					<path fill="#FFFFFF" d="M369.387,29.148c-0.664,0.387-1.502,0.192-1.865-0.434c-0.357-0.623-0.105-1.439,0.559-1.83
						l2.957-1.703c0.666-0.391,1.512-0.193,1.859,0.429c0.367,0.623,0.113,1.446-0.549,1.831L369.387,29.148z"/>
				</g>
				<g>
					<path fill="#FFFFFF" d="M364.873,22.839c-0.393,0.661-1.215,0.909-1.836,0.555c-0.619-0.362-0.818-1.202-0.438-1.866
						l1.717-2.956c0.379-0.665,1.199-0.917,1.83-0.558c0.621,0.364,0.818,1.197,0.43,1.859L364.873,22.839z"/>
				</g>
			</g>
			<g>
				<path fill="#FFFFFF" d="M355.346,27.209c3.975,0,7.209,3.241,7.209,7.219c0,3.971-3.234,7.203-7.209,7.203
					s-7.213-3.232-7.213-7.203C348.133,30.45,351.371,27.209,355.346,27.209 M355.346,24.258c-5.611,0-10.17,4.55-10.17,10.17
					c0,5.614,4.559,10.162,10.17,10.162c5.617,0,10.17-4.548,10.17-10.162C365.516,28.808,360.963,24.258,355.346,24.258
					L355.346,24.258z"/>
			</g>
		</g>
	</g>
</g>
</svg>
